<svg id="Layer_12" data-name="Layer 12" xmlns="http://www.w3.org/2000/svg" viewBox="0 0 2908.43 954.48"><defs><style>.cls-1,.cls-2{fill:#2d2d2d;}.cls-1,.cls-3{stroke:#2d2d2d;}.cls-1,.cls-3,.cls-4,.cls-5{stroke-miterlimit:10;}.cls-3,.cls-4,.cls-5{fill:none;}.cls-3{stroke-width:73.78px;}.cls-4{stroke:#d3d3d3;stroke-width:34.32px;}.cls-5{stroke:#fff;}</style></defs><title>Pos_Slate_2017</title><path class="cls-1" d="M6590.07,7368l-201.79-209.47V7368h-71.7v-359h22.53l198.21,200.77V7008.93H6609v359h-18.95Z" transform="translate(-5755.68 -6712.23)"/><path class="cls-1" d="M6864.34,7091.42L7013.16,7368h-79.39l-78.9-168-85.6,168h-79.21l158.1-276.53h16.17Z" transform="translate(-5755.68 -6712.23)"/><path class="cls-1" d="M7195.66,7215.84c-11.78-3.07-33.8-8.71-54.29-22.54-28.68-18.95-44.56-46.61-46.09-80.92-1.54-28.68,7.68-53.78,26.12-73.24,26.63-27.66,65-35.34,83.48-35.34,52.24,0,81.43,19,107.55,35.85l11.78,7.68-37.39,60.95-12.8-8.19c-23-14.85-37.9-24.58-69.14-24.58-4.61,0-22.53,3.59-31.75,13.32-3.07,3.07-6.66,8.71-6.15,20.49,0.51,18.44,13.32,28.68,46.09,36.88,4.1,1,7.17,2,10.24,3.07,34.32,11.78,60.95,27.66,79.38,47.63,18.44,20.49,28.17,44.56,28.17,70.17,0,25.1-10.76,51.22-28.68,71.19a109.07,109.07,0,0,1-82.46,36.88c-15.88,0-37.39-1-63-8.71-32.27-10.24-60.95-28.17-85.53-54.29l52.24-49.17c37.9,40.46,80.41,40.46,96.29,40.46,29.71,0,39.44-27.14,39.44-36.36,0-19.46-22-37.39-59.41-50.19l-1.54-.51Z" transform="translate(-5755.68 -6712.23)"/><path class="cls-1" d="M7691.43,7008.93v71.7h-99.36V7368h-71.7V7080.63H7420.5v-71.7h270.93Z" transform="translate(-5755.68 -6712.23)"/><path class="cls-1" d="M7933.69,7008.93l169.52,359h-79.38L7921.4,7149.77,7810.26,7368h-80.41l182.84-359h21Z" transform="translate(-5755.68 -6712.23)"/><path class="cls-2" d="M6981.31,7615.23a29.06,29.06,0,0,1-5.51-1.84,29.59,29.59,0,0,1-9.65-6.43,29.25,29.25,0,0,1-6.59-9.65,30,30,0,0,1,0-23.74,27.78,27.78,0,0,1,6.59-9.65,30,30,0,0,1,9.65-6.58,31.4,31.4,0,0,1,23.58,0,30,30,0,0,1,9.65,6.58,27.79,27.79,0,0,1,6.58,9.65,30,30,0,0,1,0,23.74c-1.53,3.52-35.38,49.47-35.38,49.47h40.58v17.61h-74.89Zm5.21-19.76a11.1,11.1,0,1,0-11.18-11.18A11.24,11.24,0,0,0,6986.52,7595.47Z" transform="translate(-5755.68 -6712.23)"/><path class="cls-2" d="M7185.16,7610.94c0,30.78-19.14,55.59-42.73,55.59s-42.73-24.81-42.73-55.59c0-30.63,19.14-55.59,42.73-55.59S7185.16,7580.31,7185.16,7610.94Zm-55.9-26.19a36.88,36.88,0,0,0-5.82,11.18,48.81,48.81,0,0,0-2.3,15,47.41,47.41,0,0,0,2.3,15,37.75,37.75,0,0,0,5.82,11.33c2.3,2.91,6.89,7.81,13.17,7.81s11-4.9,13.17-7.81a37.75,37.75,0,0,0,5.82-11.33,47.44,47.44,0,0,0,2.3-15,48.84,48.84,0,0,0-2.3-15,36.88,36.88,0,0,0-5.82-11.18c-2.14-2.91-6.89-8-13.17-8S7131.56,7581.84,7129.26,7584.75Z" transform="translate(-5755.68 -6712.23)"/><path class="cls-2" d="M7314.58,7642.79v21.59H7264v-21.59h15.32v-64H7264v-21.59H7301v85.61h13.63Z" transform="translate(-5755.68 -6712.23)"/><path class="cls-2" d="M7473.86,7557l-55.75,107.2h-23.89l45.64-85.76h-44.11V7557h78.1Z" transform="translate(-5755.68 -6712.23)"/><polyline class="cls-3" points="1105.21 917.19 36.89 917.58 36.89 36.89 2871.54 36.89 2871.54 917.58 1803.22 917.58"/><path class="cls-4" d="M6926.28,7630.19" transform="translate(-5755.68 -6712.23)"/><path class="cls-4" d="M6841.24,7629.42" transform="translate(-5755.68 -6712.23)"/><path class="cls-4" d="M7539.24,7635.72" transform="translate(-5755.68 -6712.23)"/><path class="cls-4" d="M7454.2,7634.95" transform="translate(-5755.68 -6712.23)"/><path class="cls-5" d="M6878.82,7629.42" transform="translate(-5755.68 -6712.23)"/><path class="cls-5" d="M6963.86,7629.42" transform="translate(-5755.68 -6712.23)"/></svg>